<!-- <?xml-stylesheet type="text/css" href="../css/style-test.css" ?> -->
<svg height="512pt" viewBox="0 0 512 512" width="512pt" xmlns="http://www.w3.org/2000/svg">
    <style>
        @import url(../css/style-test.css);
    </style>
    <path class="icon" d="m512 240.761719c-7.488281-129.550781-111.210938-233.273438-240.761719-240.761719v240.761719zm0 0"/>
    <path d="m292.46875 270.789062 155.226562 155.226563c37.167969-41.773437 60.867188-95.777344 64.304688-155.226563zm0 0"/>
    <path class="icon" d="m85.984375 447.246094c45.261719 40.273437 104.886719 64.753906 170.242187 64.753906 65.351563 0 124.976563-24.480469 170.238282-64.753906l-170.238282-170.238282zm0 0"/>
    <path d="m241.210938 0c-134.519532 7.773438-241.210938 119.308594-241.210938 255.773438 0 65.355468 24.480469 124.980468 64.753906 170.242187l176.457032-176.457031zm0 0"/>
</svg>