<svg height="512pt" viewBox="0 0 512 512" width="512pt" xmlns="http://www.w3.org/2000/svg"><path d="m256 128.5c-70.304688 0-127.5 57.195312-127.5 127.5s57.195312 127.5 127.5 127.5 127.5-57.195312 127.5-127.5-57.195312-127.5-127.5-127.5zm0 225c-53.761719 0-97.5-43.738281-97.5-97.5s43.738281-97.5 97.5-97.5 97.5 43.738281 97.5 97.5-43.738281 97.5-97.5 97.5zm0 0"/><path d="m256 188.5c-37.21875 0-67.5 30.28125-67.5 67.5s30.28125 67.5 67.5 67.5 67.5-30.28125 67.5-67.5-30.28125-67.5-67.5-67.5zm0 0"/><path d="m512 307.261719v-102.523438l-48.554688-14.113281c-3.8125-12.085938-8.6875-23.820312-14.550781-35.050781l24.371094-44.347657-72.492187-72.492187-44.351563 24.371094c-11.226563-5.867188-22.964844-10.738281-35.046875-14.554688l-14.113281-48.550781h-102.523438l-14.113281 48.554688c-12.085938 3.8125-23.820312 8.6875-35.050781 14.550781l-44.347657-24.371094-72.492187 72.492187 24.371094 44.351563c-5.867188 11.226563-10.738281 22.964844-14.550781 35.046875l-48.554688 14.113281v102.523438l48.554688 14.113281c3.8125 12.082031 8.6875 23.816406 14.550781 35.046875l-24.371094 44.351563 72.492187 72.492187 44.347657-24.371094c11.230469 5.863281 22.964843 10.738281 35.050781 14.550781l14.113281 48.554688h102.523438l14.113281-48.554688c12.082031-3.8125 23.820312-8.6875 35.046875-14.550781l44.351563 24.371094 72.492187-72.492187-24.371094-44.351563c5.863281-11.226563 10.738281-22.964844 14.550781-35.046875zm-98.5-51.261719c0 86.847656-70.652344 157.5-157.5 157.5s-157.5-70.652344-157.5-157.5 70.652344-157.5 157.5-157.5 157.5 70.652344 157.5 157.5zm0 0"/></svg>